<mxfile host="app.diagrams.net" modified="2020-09-05T16:45:03.820Z" agent="5.0 (X11)" etag="We6vmeO_MA9cDifoTZf6" version="13.6.6" type="github">
  <diagram id="R3SiRMFxgYjuJNOLao2z" name="Page-1">
    <mxGraphModel dx="276" dy="149" grid="1" gridSize="10" guides="1" tooltips="1" connect="1" arrows="1" fold="1" page="1" pageScale="1" pageWidth="850" pageHeight="1100" math="0" shadow="0">
      <root>
        <mxCell id="0" />
        <mxCell id="1" parent="0" />
        <mxCell id="xIumV7urKmraXYFZjmjs-1" value="Raspberry Pi 3/4" style="rounded=0;whiteSpace=wrap;html=1;" vertex="1" parent="1">
          <mxGeometry x="260" y="440" width="270" height="150" as="geometry" />
        </mxCell>
        <mxCell id="xIumV7urKmraXYFZjmjs-2" value="&lt;b&gt;&lt;font style=&quot;font-size: 10px&quot;&gt;L298N&lt;/font&gt;&lt;/b&gt;" style="rounded=0;whiteSpace=wrap;html=1;" vertex="1" parent="1">
          <mxGeometry x="570" y="530" width="70" height="60" as="geometry" />
        </mxCell>
        <mxCell id="xIumV7urKmraXYFZjmjs-5" value="" style="group" vertex="1" connectable="0" parent="1">
          <mxGeometry x="590" y="630" width="30" height="60" as="geometry" />
        </mxCell>
        <mxCell id="xIumV7urKmraXYFZjmjs-3" value="" style="shape=cylinder2;whiteSpace=wrap;html=1;boundedLbl=1;backgroundOutline=1;size=15;rotation=-180;" vertex="1" parent="xIumV7urKmraXYFZjmjs-5">
          <mxGeometry width="30" height="60" as="geometry" />
        </mxCell>
        <mxCell id="xIumV7urKmraXYFZjmjs-4" value="" style="shape=cylinder2;whiteSpace=wrap;html=1;boundedLbl=1;backgroundOutline=1;size=4.3333333333332575;rotation=-180;" vertex="1" parent="xIumV7urKmraXYFZjmjs-5">
          <mxGeometry x="12.5" y="40" width="5" height="20" as="geometry" />
        </mxCell>
        <mxCell id="xIumV7urKmraXYFZjmjs-6" value="" style="group;rotation=-179;" vertex="1" connectable="0" parent="1">
          <mxGeometry x="590" y="440" width="30" height="60" as="geometry" />
        </mxCell>
        <mxCell id="xIumV7urKmraXYFZjmjs-7" value="" style="shape=cylinder2;whiteSpace=wrap;html=1;boundedLbl=1;backgroundOutline=1;size=15;rotation=-359;" vertex="1" parent="xIumV7urKmraXYFZjmjs-6">
          <mxGeometry width="30" height="60" as="geometry" />
        </mxCell>
        <mxCell id="xIumV7urKmraXYFZjmjs-8" value="" style="shape=cylinder2;whiteSpace=wrap;html=1;boundedLbl=1;backgroundOutline=1;size=4.3333333333332575;rotation=-359;" vertex="1" parent="xIumV7urKmraXYFZjmjs-6">
          <mxGeometry x="13" width="5" height="20" as="geometry" />
        </mxCell>
        <mxCell id="xIumV7urKmraXYFZjmjs-9" value="yD Lidar" style="ellipse;whiteSpace=wrap;html=1;aspect=fixed;" vertex="1" parent="1">
          <mxGeometry x="110" y="480" width="80" height="80" as="geometry" />
        </mxCell>
        <mxCell id="xIumV7urKmraXYFZjmjs-10" value="" style="rounded=0;whiteSpace=wrap;html=1;" vertex="1" parent="1">
          <mxGeometry x="313" y="557" width="210" height="25" as="geometry" />
        </mxCell>
        <mxCell id="xIumV7urKmraXYFZjmjs-11" value="&lt;font size=&quot;1&quot;&gt;USB1&lt;/font&gt;" style="rounded=0;whiteSpace=wrap;html=1;rotation=-90;" vertex="1" parent="1">
          <mxGeometry x="245" y="560" width="30" height="20" as="geometry" />
        </mxCell>
        <mxCell id="xIumV7urKmraXYFZjmjs-13" value="&lt;font style=&quot;font-size: 10px&quot;&gt;USB2&lt;/font&gt;" style="rounded=0;whiteSpace=wrap;html=1;rotation=-90;" vertex="1" parent="1">
          <mxGeometry x="245" y="526" width="30" height="20" as="geometry" />
        </mxCell>
        <mxCell id="xIumV7urKmraXYFZjmjs-14" value="" style="ellipse;whiteSpace=wrap;html=1;aspect=fixed;" vertex="1" parent="1">
          <mxGeometry x="510" y="561" width="8" height="8" as="geometry" />
        </mxCell>
        <mxCell id="xIumV7urKmraXYFZjmjs-15" value="" style="ellipse;whiteSpace=wrap;html=1;aspect=fixed;" vertex="1" parent="1">
          <mxGeometry x="510" y="571" width="8" height="8" as="geometry" />
        </mxCell>
        <mxCell id="xIumV7urKmraXYFZjmjs-17" value="" style="ellipse;whiteSpace=wrap;html=1;aspect=fixed;" vertex="1" parent="1">
          <mxGeometry x="500" y="561" width="8" height="8" as="geometry" />
        </mxCell>
        <mxCell id="xIumV7urKmraXYFZjmjs-18" value="" style="ellipse;whiteSpace=wrap;html=1;aspect=fixed;" vertex="1" parent="1">
          <mxGeometry x="500" y="571" width="8" height="8" as="geometry" />
        </mxCell>
        <mxCell id="xIumV7urKmraXYFZjmjs-19" value="" style="ellipse;whiteSpace=wrap;html=1;aspect=fixed;" vertex="1" parent="1">
          <mxGeometry x="490" y="561" width="8" height="8" as="geometry" />
        </mxCell>
        <mxCell id="xIumV7urKmraXYFZjmjs-20" value="" style="ellipse;whiteSpace=wrap;html=1;aspect=fixed;" vertex="1" parent="1">
          <mxGeometry x="490" y="571" width="8" height="8" as="geometry" />
        </mxCell>
        <mxCell id="xIumV7urKmraXYFZjmjs-21" value="" style="ellipse;whiteSpace=wrap;html=1;aspect=fixed;" vertex="1" parent="1">
          <mxGeometry x="480" y="561" width="8" height="8" as="geometry" />
        </mxCell>
        <mxCell id="xIumV7urKmraXYFZjmjs-22" value="" style="ellipse;whiteSpace=wrap;html=1;aspect=fixed;" vertex="1" parent="1">
          <mxGeometry x="480" y="571" width="8" height="8" as="geometry" />
        </mxCell>
        <mxCell id="xIumV7urKmraXYFZjmjs-23" value="" style="ellipse;whiteSpace=wrap;html=1;aspect=fixed;" vertex="1" parent="1">
          <mxGeometry x="470" y="561" width="8" height="8" as="geometry" />
        </mxCell>
        <mxCell id="xIumV7urKmraXYFZjmjs-24" value="" style="ellipse;whiteSpace=wrap;html=1;aspect=fixed;" vertex="1" parent="1">
          <mxGeometry x="470" y="571" width="8" height="8" as="geometry" />
        </mxCell>
        <mxCell id="xIumV7urKmraXYFZjmjs-25" value="" style="ellipse;whiteSpace=wrap;html=1;aspect=fixed;" vertex="1" parent="1">
          <mxGeometry x="460" y="561" width="8" height="8" as="geometry" />
        </mxCell>
        <mxCell id="xIumV7urKmraXYFZjmjs-26" value="" style="ellipse;whiteSpace=wrap;html=1;aspect=fixed;" vertex="1" parent="1">
          <mxGeometry x="460" y="571" width="8" height="8" as="geometry" />
        </mxCell>
        <mxCell id="xIumV7urKmraXYFZjmjs-27" value="" style="ellipse;whiteSpace=wrap;html=1;aspect=fixed;" vertex="1" parent="1">
          <mxGeometry x="450" y="561" width="8" height="8" as="geometry" />
        </mxCell>
        <mxCell id="xIumV7urKmraXYFZjmjs-28" value="" style="ellipse;whiteSpace=wrap;html=1;aspect=fixed;" vertex="1" parent="1">
          <mxGeometry x="450" y="571" width="8" height="8" as="geometry" />
        </mxCell>
        <mxCell id="xIumV7urKmraXYFZjmjs-29" value="" style="ellipse;whiteSpace=wrap;html=1;aspect=fixed;" vertex="1" parent="1">
          <mxGeometry x="440" y="561" width="8" height="8" as="geometry" />
        </mxCell>
        <mxCell id="xIumV7urKmraXYFZjmjs-30" value="" style="ellipse;whiteSpace=wrap;html=1;aspect=fixed;" vertex="1" parent="1">
          <mxGeometry x="440" y="571" width="8" height="8" as="geometry" />
        </mxCell>
        <mxCell id="xIumV7urKmraXYFZjmjs-31" value="" style="ellipse;whiteSpace=wrap;html=1;aspect=fixed;" vertex="1" parent="1">
          <mxGeometry x="430" y="561" width="8" height="8" as="geometry" />
        </mxCell>
        <mxCell id="xIumV7urKmraXYFZjmjs-32" value="" style="ellipse;whiteSpace=wrap;html=1;aspect=fixed;" vertex="1" parent="1">
          <mxGeometry x="430" y="571" width="8" height="8" as="geometry" />
        </mxCell>
        <mxCell id="xIumV7urKmraXYFZjmjs-33" value="" style="ellipse;whiteSpace=wrap;html=1;aspect=fixed;" vertex="1" parent="1">
          <mxGeometry x="420" y="561" width="8" height="8" as="geometry" />
        </mxCell>
        <mxCell id="xIumV7urKmraXYFZjmjs-34" value="" style="ellipse;whiteSpace=wrap;html=1;aspect=fixed;" vertex="1" parent="1">
          <mxGeometry x="420" y="571" width="8" height="8" as="geometry" />
        </mxCell>
        <mxCell id="xIumV7urKmraXYFZjmjs-35" value="" style="ellipse;whiteSpace=wrap;html=1;aspect=fixed;" vertex="1" parent="1">
          <mxGeometry x="410" y="561" width="8" height="8" as="geometry" />
        </mxCell>
        <mxCell id="xIumV7urKmraXYFZjmjs-36" value="" style="ellipse;whiteSpace=wrap;html=1;aspect=fixed;" vertex="1" parent="1">
          <mxGeometry x="410" y="571" width="8" height="8" as="geometry" />
        </mxCell>
        <mxCell id="xIumV7urKmraXYFZjmjs-37" value="" style="ellipse;whiteSpace=wrap;html=1;aspect=fixed;" vertex="1" parent="1">
          <mxGeometry x="400" y="561" width="8" height="8" as="geometry" />
        </mxCell>
        <mxCell id="xIumV7urKmraXYFZjmjs-38" value="" style="ellipse;whiteSpace=wrap;html=1;aspect=fixed;" vertex="1" parent="1">
          <mxGeometry x="400" y="571" width="8" height="8" as="geometry" />
        </mxCell>
        <mxCell id="xIumV7urKmraXYFZjmjs-39" value="" style="ellipse;whiteSpace=wrap;html=1;aspect=fixed;" vertex="1" parent="1">
          <mxGeometry x="390" y="561" width="8" height="8" as="geometry" />
        </mxCell>
        <mxCell id="xIumV7urKmraXYFZjmjs-40" value="" style="ellipse;whiteSpace=wrap;html=1;aspect=fixed;" vertex="1" parent="1">
          <mxGeometry x="390" y="571" width="8" height="8" as="geometry" />
        </mxCell>
        <mxCell id="xIumV7urKmraXYFZjmjs-41" value="" style="ellipse;whiteSpace=wrap;html=1;aspect=fixed;" vertex="1" parent="1">
          <mxGeometry x="380" y="561" width="8" height="8" as="geometry" />
        </mxCell>
        <mxCell id="xIumV7urKmraXYFZjmjs-42" value="" style="ellipse;whiteSpace=wrap;html=1;aspect=fixed;" vertex="1" parent="1">
          <mxGeometry x="380" y="571" width="8" height="8" as="geometry" />
        </mxCell>
        <mxCell id="xIumV7urKmraXYFZjmjs-43" value="" style="ellipse;whiteSpace=wrap;html=1;aspect=fixed;" vertex="1" parent="1">
          <mxGeometry x="370" y="561" width="8" height="8" as="geometry" />
        </mxCell>
        <mxCell id="xIumV7urKmraXYFZjmjs-44" value="" style="ellipse;whiteSpace=wrap;html=1;aspect=fixed;" vertex="1" parent="1">
          <mxGeometry x="370" y="571" width="8" height="8" as="geometry" />
        </mxCell>
        <mxCell id="xIumV7urKmraXYFZjmjs-45" value="" style="ellipse;whiteSpace=wrap;html=1;aspect=fixed;" vertex="1" parent="1">
          <mxGeometry x="360" y="561" width="8" height="8" as="geometry" />
        </mxCell>
        <mxCell id="xIumV7urKmraXYFZjmjs-46" value="" style="ellipse;whiteSpace=wrap;html=1;aspect=fixed;" vertex="1" parent="1">
          <mxGeometry x="360" y="571" width="8" height="8" as="geometry" />
        </mxCell>
        <mxCell id="xIumV7urKmraXYFZjmjs-47" value="" style="ellipse;whiteSpace=wrap;html=1;aspect=fixed;" vertex="1" parent="1">
          <mxGeometry x="350" y="561" width="8" height="8" as="geometry" />
        </mxCell>
        <mxCell id="xIumV7urKmraXYFZjmjs-48" value="" style="ellipse;whiteSpace=wrap;html=1;aspect=fixed;" vertex="1" parent="1">
          <mxGeometry x="350" y="571" width="8" height="8" as="geometry" />
        </mxCell>
        <mxCell id="xIumV7urKmraXYFZjmjs-49" value="" style="ellipse;whiteSpace=wrap;html=1;aspect=fixed;" vertex="1" parent="1">
          <mxGeometry x="340" y="561" width="8" height="8" as="geometry" />
        </mxCell>
        <mxCell id="xIumV7urKmraXYFZjmjs-50" value="" style="ellipse;whiteSpace=wrap;html=1;aspect=fixed;" vertex="1" parent="1">
          <mxGeometry x="340" y="571" width="8" height="8" as="geometry" />
        </mxCell>
        <mxCell id="xIumV7urKmraXYFZjmjs-51" value="" style="ellipse;whiteSpace=wrap;html=1;aspect=fixed;" vertex="1" parent="1">
          <mxGeometry x="330" y="561" width="8" height="8" as="geometry" />
        </mxCell>
        <mxCell id="xIumV7urKmraXYFZjmjs-52" value="" style="ellipse;whiteSpace=wrap;html=1;aspect=fixed;" vertex="1" parent="1">
          <mxGeometry x="330" y="571" width="8" height="8" as="geometry" />
        </mxCell>
        <mxCell id="xIumV7urKmraXYFZjmjs-53" value="" style="ellipse;whiteSpace=wrap;html=1;aspect=fixed;" vertex="1" parent="1">
          <mxGeometry x="320" y="561" width="8" height="8" as="geometry" />
        </mxCell>
        <mxCell id="xIumV7urKmraXYFZjmjs-54" value="" style="ellipse;whiteSpace=wrap;html=1;aspect=fixed;" vertex="1" parent="1">
          <mxGeometry x="320" y="571" width="8" height="8" as="geometry" />
        </mxCell>
        <mxCell id="xIumV7urKmraXYFZjmjs-62" style="edgeStyle=orthogonalEdgeStyle;rounded=0;orthogonalLoop=1;jettySize=auto;html=1;exitX=0.25;exitY=0;exitDx=0;exitDy=0;entryX=0.106;entryY=0.879;entryDx=0;entryDy=0;entryPerimeter=0;endArrow=none;endFill=0;fillColor=#f8cecc;strokeColor=#b85450;" edge="1" parent="1" source="xIumV7urKmraXYFZjmjs-59" target="xIumV7urKmraXYFZjmjs-7">
          <mxGeometry relative="1" as="geometry" />
        </mxCell>
        <mxCell id="xIumV7urKmraXYFZjmjs-64" style="edgeStyle=orthogonalEdgeStyle;rounded=0;orthogonalLoop=1;jettySize=auto;html=1;exitX=0.75;exitY=0;exitDx=0;exitDy=0;entryX=0.866;entryY=0.901;entryDx=0;entryDy=0;entryPerimeter=0;endArrow=none;endFill=0;" edge="1" parent="1" source="xIumV7urKmraXYFZjmjs-59" target="xIumV7urKmraXYFZjmjs-7">
          <mxGeometry relative="1" as="geometry" />
        </mxCell>
        <mxCell id="xIumV7urKmraXYFZjmjs-59" value="" style="rounded=0;whiteSpace=wrap;html=1;" vertex="1" parent="1">
          <mxGeometry x="595" y="536" width="20" height="10" as="geometry" />
        </mxCell>
        <mxCell id="xIumV7urKmraXYFZjmjs-60" value="" style="rounded=0;whiteSpace=wrap;html=1;" vertex="1" parent="1">
          <mxGeometry x="595" y="572" width="20" height="10" as="geometry" />
        </mxCell>
        <mxCell id="xIumV7urKmraXYFZjmjs-61" value="" style="rounded=0;whiteSpace=wrap;html=1;rotation=-90;" vertex="1" parent="1">
          <mxGeometry x="566" y="540" width="24" height="10" as="geometry" />
        </mxCell>
        <mxCell id="xIumV7urKmraXYFZjmjs-72" value="" style="endArrow=none;html=1;fillColor=#f8cecc;strokeColor=#b85450;" edge="1" parent="1">
          <mxGeometry width="50" height="50" relative="1" as="geometry">
            <mxPoint x="601" y="610" as="sourcePoint" />
            <mxPoint x="601" y="582" as="targetPoint" />
          </mxGeometry>
        </mxCell>
        <mxCell id="xIumV7urKmraXYFZjmjs-73" value="" style="endArrow=none;html=1;" edge="1" parent="1">
          <mxGeometry width="50" height="50" relative="1" as="geometry">
            <mxPoint x="608.72" y="610" as="sourcePoint" />
            <mxPoint x="608.72" y="582" as="targetPoint" />
          </mxGeometry>
        </mxCell>
        <mxCell id="xIumV7urKmraXYFZjmjs-74" value="" style="endArrow=none;html=1;fillColor=#f8cecc;strokeColor=#b85450;" edge="1" parent="1">
          <mxGeometry width="50" height="50" relative="1" as="geometry">
            <mxPoint x="592" y="610" as="sourcePoint" />
            <mxPoint x="601" y="610" as="targetPoint" />
          </mxGeometry>
        </mxCell>
        <mxCell id="xIumV7urKmraXYFZjmjs-75" value="" style="endArrow=none;html=1;" edge="1" parent="1">
          <mxGeometry width="50" height="50" relative="1" as="geometry">
            <mxPoint x="609" y="610" as="sourcePoint" />
            <mxPoint x="618" y="610" as="targetPoint" />
          </mxGeometry>
        </mxCell>
        <mxCell id="xIumV7urKmraXYFZjmjs-76" value="" style="endArrow=none;html=1;fillColor=#f8cecc;strokeColor=#b85450;" edge="1" parent="1">
          <mxGeometry width="50" height="50" relative="1" as="geometry">
            <mxPoint x="591.84" y="638" as="sourcePoint" />
            <mxPoint x="591.84" y="610" as="targetPoint" />
          </mxGeometry>
        </mxCell>
        <mxCell id="xIumV7urKmraXYFZjmjs-77" value="" style="endArrow=none;html=1;" edge="1" parent="1">
          <mxGeometry width="50" height="50" relative="1" as="geometry">
            <mxPoint x="618" y="638.0000000000001" as="sourcePoint" />
            <mxPoint x="618" y="610" as="targetPoint" />
          </mxGeometry>
        </mxCell>
        <mxCell id="xIumV7urKmraXYFZjmjs-78" value="" style="rounded=1;whiteSpace=wrap;html=1;" vertex="1" parent="1">
          <mxGeometry x="503" y="435" width="20" height="10" as="geometry" />
        </mxCell>
        <mxCell id="xIumV7urKmraXYFZjmjs-79" value="" style="rounded=1;whiteSpace=wrap;html=1;rotation=30;" vertex="1" parent="1">
          <mxGeometry x="120" y="551" width="20" height="10" as="geometry" />
        </mxCell>
        <mxCell id="xIumV7urKmraXYFZjmjs-81" style="edgeStyle=orthogonalEdgeStyle;rounded=0;orthogonalLoop=1;jettySize=auto;html=1;exitX=0.5;exitY=1;exitDx=0;exitDy=0;entryX=0.5;entryY=0;entryDx=0;entryDy=0;endArrow=none;endFill=0;strokeWidth=3;fillColor=#dae8fc;strokeColor=#6c8ebf;" edge="1" parent="1" source="xIumV7urKmraXYFZjmjs-80" target="xIumV7urKmraXYFZjmjs-11">
          <mxGeometry relative="1" as="geometry" />
        </mxCell>
        <mxCell id="xIumV7urKmraXYFZjmjs-80" value="" style="rounded=1;whiteSpace=wrap;html=1;rotation=-25;" vertex="1" parent="1">
          <mxGeometry x="160" y="550" width="20" height="10" as="geometry" />
        </mxCell>
        <mxCell id="xIumV7urKmraXYFZjmjs-88" value="" style="ellipse;whiteSpace=wrap;html=1;aspect=fixed;" vertex="1" parent="1">
          <mxGeometry x="574" y="559" width="4" height="4" as="geometry" />
        </mxCell>
        <mxCell id="xIumV7urKmraXYFZjmjs-89" value="" style="ellipse;whiteSpace=wrap;html=1;aspect=fixed;" vertex="1" parent="1">
          <mxGeometry x="574" y="564" width="4" height="4" as="geometry" />
        </mxCell>
        <mxCell id="xIumV7urKmraXYFZjmjs-90" value="" style="ellipse;whiteSpace=wrap;html=1;aspect=fixed;" vertex="1" parent="1">
          <mxGeometry x="574" y="569" width="4" height="4" as="geometry" />
        </mxCell>
        <mxCell id="xIumV7urKmraXYFZjmjs-91" value="" style="ellipse;whiteSpace=wrap;html=1;aspect=fixed;" vertex="1" parent="1">
          <mxGeometry x="574" y="574" width="4" height="4" as="geometry" />
        </mxCell>
        <mxCell id="xIumV7urKmraXYFZjmjs-92" value="" style="ellipse;whiteSpace=wrap;html=1;aspect=fixed;" vertex="1" parent="1">
          <mxGeometry x="574" y="579" width="4" height="4" as="geometry" />
        </mxCell>
        <mxCell id="xIumV7urKmraXYFZjmjs-93" value="" style="ellipse;whiteSpace=wrap;html=1;aspect=fixed;" vertex="1" parent="1">
          <mxGeometry x="574" y="584" width="4" height="4" as="geometry" />
        </mxCell>
        <mxCell id="xIumV7urKmraXYFZjmjs-94" value="" style="ellipse;whiteSpace=wrap;html=1;aspect=fixed;" vertex="1" parent="1">
          <mxGeometry x="579" y="559" width="4" height="4" as="geometry" />
        </mxCell>
        <mxCell id="xIumV7urKmraXYFZjmjs-95" value="" style="ellipse;whiteSpace=wrap;html=1;aspect=fixed;" vertex="1" parent="1">
          <mxGeometry x="579" y="584" width="4" height="4" as="geometry" />
        </mxCell>
      </root>
    </mxGraphModel>
  </diagram>
</mxfile>
